<?xml version="1.0" encoding="UTF-8" standalone="no"?>
<svg
   height="16"
   viewBox="0 0 16 16"
   width="16"
   version="1.1"
   id="svg1"
   sodipodi:docname="ComponentNode.svg"
   inkscape:version="1.4.4 (dcaf3e7d9e, 2026-05-05)"
   xmlns:inkscape="http://www.inkscape.org/namespaces/inkscape"
   xmlns:sodipodi="http://sodipodi.sourceforge.net/DTD/sodipodi-0.dtd"
   xmlns="http://www.w3.org/2000/svg"
   xmlns:svg="http://www.w3.org/2000/svg">
  <defs
     id="defs1" />
  <sodipodi:namedview
     id="namedview1"
     pagecolor="#ffffff"
     bordercolor="#000000"
     borderopacity="0.25"
     inkscape:showpageshadow="2"
     inkscape:pageopacity="0.0"
     inkscape:pagecheckerboard="0"
     inkscape:deskcolor="#d1d1d1"
     inkscape:zoom="45.254834"
     inkscape:cx="3.7012621"
     inkscape:cy="9.1702911"
     inkscape:window-width="1920"
     inkscape:window-height="1014"
     inkscape:window-x="0"
     inkscape:window-y="0"
     inkscape:window-maximized="1"
     inkscape:current-layer="svg1" />
  <circle
     cx="8"
     cy="8"
     r="5"
     fill="none"
     stroke-width="2"
     stroke="#8da5f3"
     id="circle1" />
  <path
     style="fill:#ff9923;stroke-width:0.0220971"
     d="M 7.767126,13.983697 C 7.0256086,13.954013 6.218191,13.763778 5.5491053,13.461111 4.8477513,13.143846 4.3064378,12.765601 3.7447353,12.2003 2.8229552,11.272613 2.2586603,10.129988 2.0628232,8.7946406 2.0141274,8.4625998 2.0078361,7.5960628 2.0518338,7.2809901 2.2450994,5.8969926 2.8064705,4.7428871 3.7454562,3.7991254 4.1107092,3.4320146 4.2988444,3.2767018 4.7140416,2.9995212 5.5818439,2.4201873 6.6371334,2.074326 7.6858094,2.0255521 9.1397838,1.9579278 10.45022,2.3604866 11.623068,3.2350565 c 0.337629,0.2517639 0.885752,0.7998696 1.140201,1.1401667 0.64122,0.8575601 1.002088,1.7249839 1.172092,2.8173786 0.05579,0.35847 0.0562,1.2537662 7.43e-4,1.6130873 -0.216582,1.4033009 -0.804095,2.5533429 -1.792475,3.5087229 -1.071892,1.036104 -2.4621333,1.618808 -3.9787554,1.667649 -0.1336874,0.0043 -0.3126738,0.005 -0.3977476,0.0016 z M 8.4143367,11.986359 C 9.9899129,11.814482 11.304215,10.762771 11.798324,9.2784762 12.073606,8.4515349 12.07391,7.5476962 11.799186,6.722393 11.215963,4.9703256 9.4658268,3.8298159 7.6345435,4.0084248 5.842489,4.1832077 4.4200997,5.4697986 4.0613613,7.2404687 c -0.044192,0.2181239 -0.05074,0.3160314 -0.05074,0.7586768 0,0.4445938 0.00644,0.5400525 0.051441,0.7623494 0.1429621,0.7062318 0.4738649,1.3722811 0.9496101,1.9113981 0.834759,0.945953 2.1428619,1.450896 3.4026643,1.313466 z"
     id="path21" />
</svg>
